<?xml version="1.0" standalone="no"?>
<svg viewBox="0 0 200 200" xmlns="http://www.w3.org/2000/svg">
  <path fill="#24A148" d="M27.2,-47.9C34.8,-42.8,40,-34.5,44.5,-25.9C49.1,-17.4,52.9,-8.7,51.7,-0.7C50.5,7.3,44.1,14.5,38.2,20.7C32.3,26.9,26.8,31.9,20.5,36C14.2,40.1,7.1,43.2,-0.8,44.6C-8.8,46,-17.5,45.7,-31,45.8C-44.6,45.9,-62.9,46.4,-69.8,38.8C-76.7,31.2,-72.2,15.6,-66.7,3.2C-61.2,-9.3,-54.7,-18.5,-51.6,-32.7C-48.5,-46.9,-48.8,-66,-40.8,-70.8C-32.8,-75.6,-16.4,-66.1,-3.3,-60.5C9.8,-54.8,19.7,-53,27.2,-47.9Z" transform="translate(100 100)" />
</svg>
