<?xml version="1.0" standalone="no"?>
<svg viewBox="0 0 200 200" xmlns="http://www.w3.org/2000/svg">
  <path fill="#0F62FE" d="M40.9,-73.1C49.8,-65.7,51.4,-48.2,51.8,-34.3C52.2,-20.4,51.2,-10.2,51.2,0C51.1,10.1,51.9,20.3,49.1,29.9C46.3,39.6,39.9,48.8,31.1,54.4C22.3,60,11.2,62.1,0.7,60.9C-9.8,59.8,-19.6,55.4,-27.5,49.3C-35.4,43.1,-41.4,35.3,-46.5,26.8C-51.5,18.3,-55.5,9.1,-60.8,-3C-66.1,-15.2,-72.6,-30.5,-70.1,-43.3C-67.6,-56.2,-56.1,-66.7,-42.9,-71.6C-29.7,-76.5,-14.9,-75.7,0.6,-76.7C16,-77.7,32.1,-80.5,40.9,-73.1Z" transform="translate(100 100)" />
</svg>
