<?xml version="1.0" standalone="no"?>
<svg viewBox="0 0 200 200" xmlns="http://www.w3.org/2000/svg">
  <path fill="#FF0066" d="M45.2,-68.9C59.5,-69.9,72.9,-59.9,77.2,-46.5C81.5,-33.2,76.8,-16.6,73.6,-1.8C70.4,12.9,68.8,25.8,60.3,32C51.8,38.2,36.6,37.6,25.4,45.7C14.2,53.7,7.1,70.5,-2,73.9C-11.1,77.4,-22.3,67.7,-28.6,56.8C-34.9,45.9,-36.5,33.9,-40.1,24.3C-43.8,14.6,-49.7,7.3,-55.9,-3.6C-62.1,-14.5,-68.6,-28.9,-65.3,-39.2C-61.9,-49.4,-48.7,-55.4,-36.2,-55.5C-23.7,-55.6,-11.8,-49.7,1.8,-52.8C15.4,-55.9,30.8,-67.9,45.2,-68.9Z" transform="translate(100 100)" />
</svg>
